<svg version="1.2" xmlns="http://www.w3.org/2000/svg" viewBox="0 0 787 573" width="787" height="573"><style>.a{fill:#f2f2f2}.b{fill:#3f3d56}.c{fill:#22c55e}.d{fill:#2f2e41}.e{fill:#fff}.f{fill:#ffb6b6}.g{fill:#e6e6e6}.h{opacity:.2}</style><path class="a" d="m328.7 47.5c14.7 0 26.7 11.9 26.7 26.7 0 14.7-12 26.7-26.7 26.7-14.8 0-26.7-12-26.7-26.7 0-14.8 11.9-26.7 26.7-26.7z"/><path class="a" d="m121.6 497.2c-39.7-30.3-58.7-81.1-46.8-129.5q0.4-1.8 0.9-3.6c7.9-28.8 27.3-56.1 55.7-65.3 23.8-7.7 49.8-1.8 74.7-4.9 48.8-6 86.6-45.5 113.2-86.8 26.6-41.3 47.1-87.6 82.4-121.7 58.3-56.3 153.4-68.4 225.6-31.8 72.3 36.7 118.3 117.9 116.4 198.9-2 81-50.1 158.4-119.9 199.5-25.7 15.1-55.3 25.8-84.9 22.1-25.6-3.3-48.9-17-74.3-21.1-40.1-6.5-80 11.7-114.7 32.8-34.6 21.1-68.1 46.2-107.5 56-38.3 9.5-85.7-17.9-120.8-44.6z"/><path fill-rule="evenodd" class="b" d="m178.6 55.3q1.3-0.8 2.6-1.7 9.4-6 19.2-11.5 9.7-5.4 19.8-10.3 10.1-4.9 20.4-9.2 10.3-4.2 20.9-7.9l6.5 90.2h41.5v-103.4q3.9-0.8 7.9-1.5v104.9h49.2c13.5 0 26.8-2.6 39.2-7.8 12.4-5.1 23.7-12.6 33.2-22.1 9.5-9.5 17-20.8 22.1-33.2 5.2-12.4 7.8-25.7 7.8-39.1v-0.1q4 0.9 7.9 1.9v100.4h40.1l6.3-86q10.8 4.2 21.4 9 10.6 4.8 20.9 10.3 10.2 5.4 20.1 11.5 10 6.1 19.5 12.7 0.7 0.5 1.3 0.9 3.3 2.4 6.6 4.8v344.1h-118.3l2.1-28.9 11.5-159h-231.6l11.5 159 2.1 28.9h-117v-353.4q2.6-1.8 5.3-3.5zm298.2 142.8h33.4l6.2-85.3h-39.6zm-159.4 0h56.1v-1.7q0-1.2 0.4-2.4 0.5-1.1 1.4-2 0.8-0.8 2-1.3 1.1-0.5 2.3-0.5h24.4q1.3 0 2.4 0.5 1.1 0.5 2 1.3 0.9 0.9 1.3 2 0.5 1.2 0.5 2.4v1.7h58.7v-85.3h-151.5zm-7.9 0v-85.3h-40.9l6.2 85.3z"/><path class="b" d="m787 434.3q-3.3 3.8-6.6 7.6-3.4 3.7-7 7.4-3.5 3.6-7.1 7.1-3.7 3.5-7.4 6.8l-730.6 1q-3.8-3.3-7.4-6.8-3.6-3.5-7.2-7.1-3.5-3.7-6.9-7.4-3.4-3.8-6.6-7.6z"/><path class="b" d="m291.6 341.6v85.7q0 0.8-0.3 1.6-0.4 0.7-0.9 1.3-0.6 0.6-1.4 0.9-0.7 0.3-1.5 0.3h-127.1q-0.8 0-1.5-0.3-0.8-0.3-1.4-0.9-0.5-0.6-0.9-1.3-0.3-0.8-0.3-1.6v-85.7q0-0.8 0.3-1.6 0.4-0.7 0.9-1.3 0.6-0.6 1.4-0.9 0.7-0.3 1.5-0.3h127.1q0.8 0 1.5 0.3 0.8 0.3 1.4 0.9 0.5 0.6 0.9 1.3 0.3 0.8 0.3 1.6z"/><path class="c" d="m288.6 342.7v83.5q0 0.5-0.2 0.9-0.1 0.4-0.5 0.7-0.3 0.3-0.7 0.5-0.4 0.1-0.8 0.1h-124.9q-0.4 0-0.8-0.1-0.4-0.2-0.8-0.5-0.3-0.3-0.4-0.7-0.2-0.4-0.2-0.9v-83.5q0-0.5 0.2-0.9 0.1-0.4 0.4-0.7 0.4-0.3 0.8-0.5 0.4-0.1 0.8-0.1h124.9q0.4 0 0.8 0.1 0.4 0.2 0.7 0.5 0.4 0.3 0.5 0.7 0.2 0.4 0.2 0.9z"/><path class="d" d="m294.2 444q-0.1 0.2-0.4 0.4-0.2 0.2-0.4 0.3-0.3 0.1-0.6 0.2-0.2 0-0.5 0h-136q-0.6 0-1.1-0.2-0.5-0.2-0.8-0.7-0.4-0.4-0.5-1-0.2-0.5-0.1-1.1l2.2-10q0-0.3 0.2-0.6 0.1-0.3 0.3-0.5 0.2-0.2 0.5-0.4 0.2-0.2 0.5-0.3 0.1-0.1 0.2-0.1 0.1 0 0.3 0 0.1-0.1 0.2-0.1 0.1 0 0.2 0h131.8q0.1 0 0.2 0 0.1 0 0.2 0.1 0.1 0 0.3 0 0.1 0 0.2 0.1 0.3 0.1 0.5 0.3 0.3 0.2 0.5 0.4 0.2 0.2 0.3 0.5 0.2 0.3 0.2 0.6l2.1 10q0.1 0.3 0.1 0.6 0 0.3-0.1 0.5 0 0.3-0.2 0.5-0.1 0.3-0.3 0.5z"/><path class="b" d="m159.4 432.2c0-0.3 0.2-0.5 0.5-0.5h3.2c0.2 0 0.5 0.2 0.5 0.5v1.5c0 0.3-0.3 0.5-0.5 0.5h-3.2c-0.3 0-0.5-0.2-0.5-0.5z"/><path class="b" d="m167.7 432.2c0-0.3 0.3-0.5 0.5-0.5h3.2c0.3 0 0.5 0.2 0.5 0.5v1.5c0 0.3-0.2 0.5-0.5 0.5h-3.2c-0.2 0-0.5-0.2-0.5-0.5z"/><path class="b" d="m176.1 432.2c0-0.3 0.2-0.5 0.5-0.5h3.2c0.3 0 0.5 0.2 0.5 0.5v1.5c0 0.3-0.2 0.5-0.5 0.5h-3.2c-0.3 0-0.5-0.2-0.5-0.5z"/><path class="b" d="m184.5 432.2c0-0.3 0.2-0.5 0.5-0.5h3.2c0.3 0 0.5 0.2 0.5 0.5v1.5c0 0.3-0.2 0.5-0.5 0.5h-3.2c-0.3 0-0.5-0.2-0.5-0.5z"/><path class="b" d="m192.9 432.2c0-0.3 0.2-0.5 0.5-0.5h3.2c0.2 0 0.5 0.2 0.5 0.5v1.5c0 0.3-0.3 0.5-0.5 0.5h-3.2c-0.3 0-0.5-0.2-0.5-0.5z"/><path class="b" d="m201.3 432.2c0-0.3 0.2-0.5 0.4-0.5h3.3c0.2 0 0.4 0.2 0.4 0.5v1.5c0 0.3-0.2 0.5-0.4 0.5h-3.3c-0.2 0-0.4-0.2-0.4-0.5z"/><path class="b" d="m209.6 432.2c0-0.3 0.2-0.5 0.5-0.5h3.2c0.3 0 0.5 0.2 0.5 0.5v1.5c0 0.3-0.2 0.5-0.5 0.5h-3.2c-0.3 0-0.5-0.2-0.5-0.5z"/><path class="b" d="m218 432.2c0-0.3 0.2-0.5 0.5-0.5h3.2c0.3 0 0.5 0.2 0.5 0.5v1.5c0 0.3-0.2 0.5-0.5 0.5h-3.2c-0.3 0-0.5-0.2-0.5-0.5z"/><path class="b" d="m226.4 432.2c0-0.3 0.2-0.5 0.5-0.5h3.2c0.3 0 0.5 0.2 0.5 0.5v1.5c0 0.3-0.2 0.5-0.5 0.5h-3.2c-0.3 0-0.5-0.2-0.5-0.5z"/><path class="b" d="m234.8 432.2c0-0.3 0.2-0.5 0.4-0.5h3.3c0.2 0 0.4 0.2 0.4 0.5v1.5c0 0.3-0.2 0.5-0.4 0.5h-3.3c-0.2 0-0.4-0.2-0.4-0.5z"/><path class="b" d="m243.1 432.2c0-0.3 0.3-0.5 0.5-0.5h3.2c0.3 0 0.5 0.2 0.5 0.5v1.5c0 0.3-0.2 0.5-0.5 0.5h-3.2c-0.2 0-0.5-0.2-0.5-0.5z"/><path class="b" d="m251.5 432.2c0-0.3 0.2-0.5 0.5-0.5h3.2c0.3 0 0.5 0.2 0.5 0.5v1.5c0 0.3-0.2 0.5-0.5 0.5h-3.2c-0.3 0-0.5-0.2-0.5-0.5z"/><path class="b" d="m259.9 432.2c0-0.3 0.2-0.5 0.5-0.5h3.2c0.3 0 0.5 0.2 0.5 0.5v1.5c0 0.3-0.2 0.5-0.5 0.5h-3.2c-0.3 0-0.5-0.2-0.5-0.5z"/><path class="b" d="m268.3 432.2c0-0.3 0.2-0.5 0.5-0.5h3.2c0.2 0 0.5 0.2 0.5 0.5v1.5c0 0.3-0.3 0.5-0.5 0.5h-3.2c-0.3 0-0.5-0.2-0.5-0.5z"/><path class="b" d="m276.6 432.2c0-0.3 0.3-0.5 0.5-0.5h3.2c0.3 0 0.5 0.2 0.5 0.5v1.5c0 0.3-0.2 0.5-0.5 0.5h-3.2c-0.2 0-0.5-0.2-0.5-0.5z"/><path class="b" d="m285 432.2c0-0.3 0.2-0.5 0.5-0.5h3.2c0.3 0 0.5 0.2 0.5 0.5v1.5c0 0.3-0.2 0.5-0.5 0.5h-3.2c-0.3 0-0.5-0.2-0.5-0.5z"/><path class="b" d="m159.3 436.4c0-0.3 0.2-0.5 0.5-0.5h3.2c0.2 0 0.5 0.2 0.5 0.5v1.5c0 0.3-0.3 0.5-0.5 0.5h-3.2c-0.3 0-0.5-0.2-0.5-0.5z"/><path class="b" d="m167.6 436.4c0-0.3 0.3-0.5 0.5-0.5h3.2c0.3 0 0.5 0.2 0.5 0.5v1.5c0 0.3-0.2 0.5-0.5 0.5h-3.2c-0.2 0-0.5-0.2-0.5-0.5z"/><path class="b" d="m176 436.4c0-0.3 0.2-0.5 0.5-0.5h3.2c0.3 0 0.5 0.2 0.5 0.5v1.5c0 0.3-0.2 0.5-0.5 0.5h-3.2c-0.3 0-0.5-0.2-0.5-0.5z"/><path class="b" d="m184.4 436.4c0-0.3 0.2-0.5 0.5-0.5h3.2c0.3 0 0.5 0.2 0.5 0.5v1.5c0 0.3-0.2 0.5-0.5 0.5h-3.2c-0.3 0-0.5-0.2-0.5-0.5z"/><path class="b" d="m192.8 436.4c0-0.3 0.2-0.5 0.5-0.5h3.2c0.2 0 0.5 0.2 0.5 0.5v1.5c0 0.3-0.3 0.5-0.5 0.5h-3.2c-0.3 0-0.5-0.2-0.5-0.5z"/><path class="b" d="m201.2 436.4c0-0.3 0.2-0.5 0.4-0.5h3.3c0.2 0 0.4 0.2 0.4 0.5v1.5c0 0.3-0.2 0.5-0.4 0.5h-3.3c-0.2 0-0.4-0.2-0.4-0.5z"/><path class="b" d="m209.5 436.4c0-0.3 0.2-0.5 0.5-0.5h3.2c0.3 0 0.5 0.2 0.5 0.5v1.5c0 0.3-0.2 0.5-0.5 0.5h-3.2c-0.3 0-0.5-0.2-0.5-0.5z"/><path class="b" d="m217.9 436.4c0-0.3 0.2-0.5 0.5-0.5h3.2c0.3 0 0.5 0.2 0.5 0.5v1.5c0 0.3-0.2 0.5-0.5 0.5h-3.2c-0.3 0-0.5-0.2-0.5-0.5z"/><path class="b" d="m226.3 436.4c0-0.3 0.2-0.5 0.5-0.5h3.2c0.3 0 0.5 0.2 0.5 0.5v1.5c0 0.3-0.2 0.5-0.5 0.5h-3.2c-0.3 0-0.5-0.2-0.5-0.5z"/><path class="b" d="m234.7 436.4c0-0.3 0.2-0.5 0.4-0.5h3.3c0.2 0 0.5 0.2 0.5 0.5v1.5c0 0.3-0.3 0.5-0.5 0.5h-3.3c-0.2 0-0.4-0.2-0.4-0.5z"/><path class="b" d="m243 436.4c0-0.3 0.3-0.5 0.5-0.5h3.2c0.3 0 0.5 0.2 0.5 0.5v1.5c0 0.3-0.2 0.5-0.5 0.5h-3.2c-0.2 0-0.5-0.2-0.5-0.5z"/><path class="b" d="m251.4 436.4c0-0.3 0.2-0.5 0.5-0.5h3.2c0.3 0 0.5 0.2 0.5 0.5v1.5c0 0.3-0.2 0.5-0.5 0.5h-3.2c-0.3 0-0.5-0.2-0.5-0.5z"/><path class="b" d="m259.8 436.4c0-0.3 0.2-0.5 0.5-0.5h3.2c0.3 0 0.5 0.2 0.5 0.5v1.5c0 0.3-0.2 0.5-0.5 0.5h-3.2c-0.3 0-0.5-0.2-0.5-0.5z"/><path class="b" d="m268.2 436.4c0-0.3 0.2-0.5 0.5-0.5h3.2c0.2 0 0.5 0.2 0.5 0.5v1.5c0 0.3-0.3 0.5-0.5 0.5h-3.2c-0.3 0-0.5-0.2-0.5-0.5z"/><path class="b" d="m276.5 436.4c0-0.3 0.3-0.5 0.5-0.5h3.2c0.3 0 0.5 0.2 0.5 0.5v1.5c0 0.3-0.2 0.5-0.5 0.5h-3.2c-0.2 0-0.5-0.2-0.5-0.5z"/><path class="b" d="m284.9 436.4c0-0.3 0.2-0.5 0.5-0.5h3.2c0.3 0 0.5 0.2 0.5 0.5v1.5c0 0.3-0.2 0.5-0.5 0.5h-3.2c-0.3 0-0.5-0.2-0.5-0.5z"/><path class="b" d="m199.5 441.4c0-0.2 0.2-0.5 0.5-0.5h32.5c0.3 0 0.5 0.3 0.5 0.5v1.6c0 0.2-0.2 0.4-0.5 0.4h-32.5c-0.3 0-0.5-0.2-0.5-0.4z"/><path class="e" d="m265.4 360.3c0 0.9 2.4-1.6 1.6-1.6h2.8c-0.9 0 1.6 2.5 1.6 1.6 0-0.9-2.5 1.6-1.6 1.6h-2.8c0.8 0-1.6-2.5-1.6-1.6z"/><path class="e" d="m232.9 360.3c0 0.9 2.4-1.6 1.5-1.6h2.9c-0.9 0 1.5 2.5 1.5 1.6 0-0.9-2.4 1.6-1.5 1.6h-2.9c0.9 0-1.5-2.5-1.5-1.6z"/><path class="e" d="m223.7 360.3c0 0.9 2.4-1.6 1.5-1.6h2.9c-0.9 0 1.5 2.5 1.5 1.6 0-0.9-2.4 1.6-1.5 1.6h-2.9c0.9 0-1.5-2.5-1.5-1.6z"/><path class="e" d="m241.7 360c0 0.9 2.4-1.5 1.6-1.5h17.7c-0.9 0 1.5 2.4 1.5 1.5 0-0.8-2.4 1.6-1.5 1.6h-17.7c0.8 0-1.6-2.4-1.6-1.6z"/><path class="e" d="m198.4 360c0 0.9 2.4-1.5 1.5-1.5h17.7c-0.9 0 1.6 2.4 1.6 1.5 0-0.8-2.5 1.6-1.6 1.6h-17.7c0.9 0-1.5-2.4-1.5-1.6z"/><path class="e" d="m256.7 367.3c0 0.9 2.5-1.5 1.6-1.5h2.8c-0.8 0 1.6 2.4 1.6 1.5 0-0.8-2.4 1.6-1.6 1.6h-2.8c0.9 0-1.6-2.4-1.6-1.6z"/><path class="e" d="m224.2 367.3c0 0.9 2.4-1.5 1.6-1.5h2.8c-0.9 0 1.6 2.4 1.6 1.5 0-0.8-2.5 1.6-1.6 1.6h-2.8c0.8 0-1.6-2.4-1.6-1.6z"/><path class="e" d="m215 367.3c0 0.9 2.4-1.5 1.6-1.5h2.8c-0.9 0 1.6 2.4 1.6 1.5 0-0.8-2.5 1.6-1.6 1.6h-2.8c0.8 0-1.6-2.4-1.6-1.6z"/><path class="e" d="m233.1 367.1c0 0.8 2.4-1.6 1.5-1.6h17.7c-0.9 0 1.5 2.4 1.5 1.6 0-0.9-2.4 1.5-1.5 1.5h-17.7c0.9 0-1.5-2.4-1.5-1.5z"/><path class="e" d="m189.7 367.1c0 0.8 2.4-1.6 1.6-1.6h17.6c-0.8 0 1.6 2.4 1.6 1.6 0-0.9-2.4 1.5-1.6 1.5h-17.6c0.8 0-1.6-2.4-1.6-1.5z"/><path class="e" d="m248.1 374.4c0 0.9 2.4-1.6 1.5-1.6h2.9c-0.9 0 1.5 2.5 1.5 1.6 0-0.9-2.4 1.6-1.5 1.6h-2.9c0.9 0-1.5-2.5-1.5-1.6z"/><path class="e" d="m215.5 374.4c0 0.9 2.5-1.6 1.6-1.6h2.8c-0.8 0 1.6 2.5 1.6 1.6 0-0.9-2.4 1.6-1.6 1.6h-2.8c0.9 0-1.6-2.5-1.6-1.6z"/><path class="e" d="m206.3 374.4c0 0.9 2.4-1.6 1.6-1.6h2.8c-0.8 0 1.6 2.5 1.6 1.6 0-0.9-2.4 1.6-1.6 1.6h-2.8c0.8 0-1.6-2.5-1.6-1.6z"/><path class="e" d="m224.4 374.1c0 0.9 2.4-1.5 1.5-1.5h17.7c-0.8 0 1.6 2.4 1.6 1.5 0-0.8-2.4 1.6-1.6 1.6h-17.7c0.9 0-1.5-2.4-1.5-1.6z"/><path class="e" d="m181 374.1c0 0.9 2.4-1.5 1.6-1.5h17.7c-0.9 0 1.5 2.4 1.5 1.5 0-0.8-2.4 1.6-1.5 1.6h-17.7c0.8 0-1.6-2.4-1.6-1.6z"/><path class="e" d="m239.4 381.4c0 0.9 2.4-1.5 1.5-1.5h2.9c-0.9 0 1.6 2.4 1.6 1.5 0-0.8-2.5 1.6-1.6 1.6h-2.9c0.9 0-1.5-2.4-1.5-1.6z"/><path class="e" d="m206.9 381.4c0 0.9 2.4-1.5 1.5-1.5h2.9c-0.9 0 1.5 2.4 1.5 1.5 0-0.8-2.4 1.6-1.5 1.6h-2.9c0.9 0-1.5-2.4-1.5-1.6z"/><path class="e" d="m197.6 381.4c0 0.9 2.5-1.5 1.6-1.5h2.9c-0.9 0 1.5 2.4 1.5 1.5 0-0.8-2.4 1.6-1.5 1.6h-2.9c0.9 0-1.6-2.4-1.6-1.6z"/><path class="e" d="m215.7 381.2c0 0.8 2.4-1.6 1.6-1.6h17.6c-0.8 0 1.6 2.4 1.6 1.6 0-0.9-2.4 1.5-1.6 1.5h-17.6c0.8 0-1.6-2.4-1.6-1.5z"/><path class="e" d="m232.9 409.5c0 0.8 2.4-1.6 1.5-1.6h2.9c-0.9 0 1.5 2.4 1.5 1.6 0-0.9-2.4 1.5-1.5 1.5h-2.9c0.9 0-1.5-2.4-1.5-1.5z"/><path class="e" d="m223.7 409.5c0 0.8 2.4-1.6 1.5-1.6h2.9c-0.9 0 1.5 2.4 1.5 1.6 0-0.9-2.4 1.5-1.5 1.5h-2.9c0.9 0-1.5-2.4-1.5-1.5z"/><path class="e" d="m198.4 409.7c0 0.9 2.4-1.5 1.5-1.5h17.7c-0.9 0 1.6 2.4 1.6 1.5 0-0.8-2.5 1.6-1.6 1.6h-17.7c0.9 0-1.5-2.4-1.5-1.6z"/><path class="e" d="m265.4 409.5c0 0.8 2.4-1.6 1.6-1.6h2.8c-0.9 0 1.6 2.4 1.6 1.6 0-0.9-2.5 1.5-1.6 1.5h-2.8c0.8 0-1.6-2.4-1.6-1.5z"/><path class="e" d="m241.7 409.7c0 0.9 2.4-1.5 1.6-1.5h17.7c-0.9 0 1.5 2.4 1.5 1.5 0-0.8-2.4 1.6-1.5 1.6h-17.7c0.8 0-1.6-2.4-1.6-1.6z"/><path class="e" d="m256.7 402.4c0 0.9 2.5-1.5 1.6-1.5h2.8c-0.8 0 1.6 2.4 1.6 1.5 0-0.9-2.4 1.6-1.6 1.6h-2.8c0.9 0-1.6-2.5-1.6-1.6z"/><path class="e" d="m224.2 402.4c0 0.9 2.4-1.5 1.6-1.5h2.8c-0.9 0 1.6 2.4 1.6 1.5 0-0.9-2.5 1.6-1.6 1.6h-2.8c0.8 0-1.6-2.5-1.6-1.6z"/><path class="e" d="m215 402.4c0 0.9 2.4-1.5 1.6-1.5h2.8c-0.9 0 1.6 2.4 1.6 1.5 0-0.9-2.5 1.6-1.6 1.6h-2.8c0.8 0-1.6-2.5-1.6-1.6z"/><path class="e" d="m233.1 402.7c0 0.8 2.4-1.6 1.5-1.6h17.7c-0.9 0 1.5 2.4 1.5 1.6 0-0.9-2.4 1.5-1.5 1.5h-17.7c0.9 0-1.5-2.4-1.5-1.5z"/><path class="e" d="m248.1 395.4c0 0.8 2.4-1.6 1.5-1.6h2.9c-0.9 0 1.5 2.4 1.5 1.6 0-0.9-2.4 1.5-1.5 1.5h-2.9c0.9 0-1.5-2.4-1.5-1.5z"/><path class="e" d="m215.5 395.4c0 0.8 2.5-1.6 1.6-1.6h2.8c-0.8 0 1.6 2.4 1.6 1.6 0-0.9-2.4 1.5-1.6 1.5h-2.8c0.9 0-1.6-2.4-1.6-1.5z"/><path class="e" d="m206.3 395.4c0 0.8 2.4-1.6 1.6-1.6h2.8c-0.8 0 1.6 2.4 1.6 1.6 0-0.9-2.4 1.5-1.6 1.5h-2.8c0.8 0-1.6-2.4-1.6-1.5z"/><path class="e" d="m224.4 395.6c0 0.9 2.4-1.5 1.5-1.5h17.7c-0.8 0 1.6 2.4 1.6 1.5 0-0.8-2.4 1.6-1.6 1.6h-17.7c0.9 0-1.5-2.4-1.5-1.6z"/><path class="e" d="m239.4 388.3c0 0.9 2.4-1.5 1.5-1.5h2.9c-0.9 0 1.6 2.4 1.6 1.5 0-0.8-2.5 1.6-1.6 1.6h-2.9c0.9 0-1.5-2.4-1.5-1.6z"/><path class="e" d="m206.9 388.3c0 0.9 2.4-1.5 1.5-1.5h2.9c-0.9 0 1.5 2.4 1.5 1.5 0-0.8-2.4 1.6-1.5 1.6h-2.9c0.9 0-1.5-2.4-1.5-1.6z"/><path class="e" d="m197.6 388.3c0 0.9 2.5-1.5 1.6-1.5h2.9c-0.9 0 1.5 2.4 1.5 1.5 0-0.8-2.4 1.6-1.5 1.6h-2.9c0.9 0-1.6-2.4-1.6-1.6z"/><path class="e" d="m215.7 388.6c0 0.8 2.4-1.6 1.6-1.6h17.6c-0.8 0 1.6 2.4 1.6 1.6 0-0.9-2.4 1.5-1.6 1.5h-17.6c0.8 0-1.6-2.4-1.6-1.5z"/><path class="f" d="m242.7 457.7l-27.3-10.1c-2.3-0.8-4.4-2.1-6.3-3.8-1.8-1.6-3.3-3.6-4.3-5.8-1.1-2.2-1.7-4.6-1.9-7.1-0.2-2.5 0.1-4.9 0.9-7.3 1.1-3.1 2.9-6 5.4-8.2 2.5-2.3 5.6-3.8 8.9-4.5 3.2-0.7 6.6-0.5 9.8 0.5 3.2 1.1 6.1 2.9 8.3 5.4l17.3 19.2 41.9 33.4-13.3 21.1z"/><path fill-rule="evenodd" class="d" d="m595.3 337.5v102.5h-71.8v-102.5q0-0.6 0.1-1.1 0.2-0.5 0.5-1 0.4-0.4 0.8-0.7 0.5-0.4 1-0.5 0.1-0.1 0.2-0.1 0.2 0 0.3 0 0.1-0.1 0.3-0.1 0.1 0 0.2 0h64.9q0.7 0 1.4 0.3 0.6 0.2 1.1 0.7 0.5 0.5 0.7 1.2 0.3 0.6 0.3 1.3zm-28 35.2c0-2-0.9-3.9-2.3-5.4-1.4-1.4-3.4-2.2-5.4-2.2-2 0-4 0.8-5.4 2.2-1.4 1.5-2.3 3.4-2.3 5.4v11.9c0 2 0.9 4 2.3 5.4 1.4 1.4 3.4 2.3 5.4 2.3 2 0 4-0.9 5.4-2.3 1.4-1.4 2.3-3.4 2.3-5.4z"/><path class="b" d="m595.5 436.8v9.9q0 0.3-0.1 0.7-0.2 0.3-0.4 0.6-0.3 0.3-0.7 0.4-0.3 0.2-0.7 0.2h-68.4q-0.4 0-0.8-0.2-0.3-0.1-0.6-0.4-0.3-0.3-0.4-0.6-0.2-0.4-0.2-0.7v-9.9z"/><path class="b" d="m708.3 183v187.2c0 1.2-0.2 2.4-0.6 3.5-0.5 1.1-1.2 2-2 2.9-0.8 0.8-1.8 1.5-2.9 1.9-1.1 0.5-2.3 0.7-3.5 0.7h-277.5c-1.1 0-2.3-0.2-3.4-0.7-1.1-0.4-2.1-1.1-2.9-1.9-0.9-0.9-1.5-1.8-2-2.9-0.4-1.1-0.7-2.3-0.7-3.5v-187.2c0-1.2 0.3-2.4 0.7-3.5 0.5-1.1 1.1-2.1 2-2.9 0.8-0.8 1.8-1.5 2.9-1.9 1.1-0.5 2.3-0.7 3.4-0.7h277.5c1.2 0 2.4 0.2 3.5 0.7 1.1 0.4 2.1 1.1 2.9 1.9 0.8 0.8 1.5 1.8 1.9 2.9 0.5 1.1 0.7 2.3 0.7 3.5z"/><path class="e" d="m701.8 185.3v182.6q0 1-0.3 1.9-0.4 0.8-1.1 1.5-0.7 0.7-1.5 1.1-0.9 0.3-1.9 0.3h-272.8q-1 0-1.9-0.3-0.9-0.4-1.5-1.1-0.7-0.7-1.1-1.5-0.4-0.9-0.4-1.9v-182.6q0-1 0.4-1.9 0.4-0.8 1-1.5 0.7-0.7 1.6-1.1 0.9-0.3 1.9-0.3h272.8q1 0 1.9 0.3 0.8 0.4 1.5 1.1 0.7 0.7 1.1 1.5 0.3 0.9 0.3 1.9z"/><path class="d" d="m651.2 447.9q-0.2 0.3-0.5 0.5-0.2 0.2-0.5 0.3-0.3 0.2-0.7 0.3-0.3 0-0.6 0h-162.4q-0.6 0-1.3-0.3-0.6-0.3-1-0.8-0.4-0.5-0.6-1.2-0.1-0.6 0-1.3l2.5-11.9q0.1-0.4 0.3-0.7 0.1-0.4 0.4-0.7 0.2-0.2 0.5-0.5 0.3-0.2 0.7-0.3 0.1-0.1 0.2-0.1 0.2 0 0.3-0.1 0.1 0 0.3 0 0.1 0 0.3 0h157.3q0.1 0 0.2 0 0.2 0 0.3 0 0.1 0.1 0.3 0.1 0.1 0 0.2 0.1 0.4 0.1 0.7 0.3 0.3 0.3 0.5 0.5 0.3 0.3 0.4 0.7 0.2 0.3 0.3 0.7l2.5 11.9q0.1 0.4 0.1 0.7 0 0.3-0.1 0.6-0.1 0.4-0.3 0.7-0.1 0.3-0.3 0.5z"/><path class="b" d="m432.3 205.3q-0.3-0.3-0.3-0.7 0-0.4 0.3-0.7 0.3-0.3 0.7-0.3h255.3q0.4 0 0.7 0.3 0.3 0.3 0.3 0.7 0 0.4-0.3 0.7-0.3 0.3-0.7 0.3h-255.3q-0.4 0-0.7-0.3z"/><path class="b" d="m670.9 186.2c3.3 0 6 2.8 6 6.1 0 3.4-2.7 6.1-6 6.1-3.2 0-5.9-2.7-5.9-6.1 0-3.3 2.7-6.1 5.9-6.1z"/><path class="b" d="m650.4 186.2c3.3 0 5.9 2.8 5.9 6.1 0 3.4-2.6 6.1-5.9 6.1-3.3 0-6-2.7-6-6.1 0-3.3 2.7-6.1 6-6.1z"/><path class="b" d="m629.8 186.2c3.3 0 6 2.8 6 6.1 0 3.4-2.7 6.1-6 6.1-3.3 0-5.9-2.7-5.9-6.1 0-3.3 2.6-6.1 5.9-6.1z"/><path class="b" d="m445.4 187.8h14.6c0.3 0 0.5 0.1 0.7 0.3 0.3 0.2 0.4 0.5 0.4 0.8 0 0.2-0.1 0.5-0.4 0.7-0.2 0.2-0.4 0.4-0.7 0.4h-14.6c-0.3 0-0.6-0.2-0.8-0.4-0.2-0.2-0.3-0.5-0.3-0.7 0-0.3 0.1-0.6 0.3-0.8 0.2-0.2 0.5-0.3 0.8-0.3z"/><path class="b" d="m445.4 191.9h14.6c0.3 0 0.5 0.1 0.7 0.3 0.3 0.2 0.4 0.5 0.4 0.8 0 0.3-0.1 0.6-0.4 0.8-0.2 0.2-0.4 0.3-0.7 0.3h-14.6c-0.3 0-0.6-0.1-0.8-0.3-0.2-0.2-0.3-0.5-0.3-0.8 0-0.3 0.1-0.6 0.3-0.8 0.2-0.2 0.5-0.3 0.8-0.3z"/><path class="b" d="m445.4 196.1h14.6c0.3 0 0.5 0.1 0.7 0.3 0.3 0.2 0.4 0.5 0.4 0.8 0 0.2-0.1 0.5-0.4 0.7-0.2 0.2-0.4 0.4-0.7 0.4h-14.6c-0.3 0-0.6-0.2-0.8-0.4-0.2-0.2-0.3-0.5-0.3-0.7 0-0.3 0.1-0.6 0.3-0.8 0.2-0.2 0.5-0.3 0.8-0.3z"/><path fill-rule="evenodd" class="d" d="m93.4 441.1q-0.3 1-0.9 1.8-0.7 0.8-1.5 1.4-0.8 0.6-1.8 0.9-1 0.2-2 0.2l-26.5-0.6q-1-0.1-2-0.4-0.9-0.4-1.7-1-0.8-0.6-1.4-1.5-0.6-0.8-0.9-1.8l-3.7-40.1q-0.5 0.2-1 0.4-0.5 0.2-1.1 0.3-0.5 0.1-1 0.1-0.6 0.1-1.1 0.1c-2.6-0.1-5-1.2-6.8-3-1.8-1.9-2.7-4.4-2.7-6.9 0.1-2.6 1.2-5 3-6.8 1.9-1.7 4.4-2.7 6.9-2.6q0.3 0 0.5 0 0.2 0 0.4 0 0.2 0 0.5 0.1 0.2 0 0.4 0 0.4-0.5 1-0.9 0.6-0.4 1.2-0.6 0.6-0.3 1.3-0.4 0.7-0.2 1.4-0.2l40.7 1.1q0.1 0 0.3 0 0.1 0 0.2 0 0.1 0 0.3 0.1 0.1 0 0.2 0 1.4 0.3 2.5 1.1 1.1 0.8 1.8 1.9 0.7 1.2 0.9 2.6 0.1 1.4-0.3 2.7zm-43.2-43.8l-2.7-9.6q-0.1-0.4-0.1-0.8-0.1-0.4-0.1-0.9 0-0.4 0.1-0.8 0-0.5 0.1-0.9c-0.1 0-0.2 0-0.3 0-1.9-0.1-3.6 0.6-5 1.9-1.3 1.3-2.1 3-2.1 4.8 0 1.8 0.6 3.6 1.9 4.9 1.3 1.4 3 2.1 4.8 2.2q0.5 0 0.9 0 0.4-0.1 0.9-0.2 0.4-0.1 0.8-0.3 0.4-0.1 0.8-0.3z"/><path class="b" d="m95.6 380.8c-0.9 5-10.6 8.5-22.4 7.9-10.7-0.5-19.6-4.3-21.2-8.8q0.2-0.1 0.5-0.1 0.2-0.1 0.4-0.1 0.3 0 0.5-0.1 0.2 0 0.5 0l40.7 1.1q0.1 0 0.3 0 0.1 0 0.2 0 0.1 0 0.3 0.1 0.1 0 0.2 0z"/><path class="c" d="m71.1 419.1q0 0 0 0-0.1 0-0.1-0.1 0 0 0 0 0 0-0.1 0l-5.7-3.8q-0.1 0-0.2-0.1 0-0.2 0-0.3 0-0.1 0-0.2 0.1-0.1 0.2-0.2l6-3.9q0.1-0.1 0.3-0.1 0.2 0.1 0.4 0.2 0.1 0.2 0 0.4 0 0.2-0.2 0.3l-5.3 3.5 5.1 3.4q0.1 0.1 0.2 0.2 0 0.2 0 0.4-0.1 0.2-0.3 0.2-0.1 0.1-0.3 0.1z"/><path class="c" d="m80.2 419.5q-0.2 0-0.3-0.2-0.1-0.1-0.1-0.2 0-0.2 0.1-0.3 0-0.1 0.2-0.2l5.3-3.1-5.2-3.8q-0.1-0.1-0.2-0.3 0-0.2 0.1-0.4 0.2-0.1 0.4-0.2 0.2 0 0.3 0.1l5.8 4.3q0.1 0.1 0.1 0.2 0.1 0.1 0.1 0.2 0 0.1-0.1 0.3-0.1 0.1-0.2 0.1l-5.9 3.4q-0.1 0.1-0.1 0.1-0.1 0-0.1 0-0.1 0-0.1 0-0.1 0-0.1 0z"/><path class="c" d="m71.7 422.4q-0.1 0-0.1 0 0 0 0-0.1 0 0 0 0-0.1 0-0.1 0-0.1 0-0.1-0.1-0.1-0.1-0.1-0.2 0-0.1 0-0.2 0-0.1 0.1-0.2l8.1-13.4q0.1-0.2 0.3-0.2 0.2-0.1 0.4 0.1 0.2 0.1 0.2 0.3 0.1 0.2 0 0.3l-8.2 13.4q0 0.1-0.1 0.2 0 0-0.1 0.1-0.1 0-0.2 0-0.1 0-0.1 0z"/><path class="c" d="m526.9 263.8c0 1.7 4.7-3 3-3h44.7c-1.6 0 3 4.7 3 3v4.9c0-1.7-4.6 3-3 3h-44.7c1.7 0-3-4.7-3-3z"/><path class="g" d="m501.1 285.5c0 1.7 4.7-3 3-3h96.3c-1.7 0 3 4.7 3 3v4.9c0-1.7-4.7 3-3 3h-96.3c1.7 0-3-4.7-3-3z"/><path class="g" d="m501.1 307.2c0 1.7 4.7-3 3-3h96.3c-1.7 0 3 4.7 3 3v4.9c0-1.7-4.7 3-3 3h-96.3c1.7 0-3-4.7-3-3z"/><path class="b" d="m496.3 376.8l-0.2 0.7v0.1l-6.6 19.8-7.5 22.9-14.1 42.9-0.1 6.7-1.1 53.7 2.9 7.3-3.2 11.9c0 0 1.5-18 9.5-7.7 4.6 5.9 10 11.9 14.4 17.6q-9.6 3.9-19.6 7-2.1 0.7-4.3 1.3-0.4 0.2-0.9 0.3-8.2 2.4-16.5 4.3-8.4 1.9-16.8 3.3-8.5 1.3-17 2.2-8.5 0.8-17 1-1.8 0.1-3.5 0.1-0.6 0-1.2 0-1.9 0.1-3.8 0.1-3.9 0-7.7-0.2-7.1-0.2-14.2-0.7-7-0.6-14.1-1.6-7-0.9-13.9-2.2-7-1.4-13.9-3c0.1-7.6 0.5-16.5 1-26 0.2-4.6 5.3-9.6 5.6-14.5 0.2-3.6-4.4-7.1-4.1-10.8 1.5-22.8 3.5-14 4.9-30.2q0.2-2.4 0.4-4.6c0.9-10.3 1.6-16.8 1.6-16.8l-6.2-38.7-9.6-60.8 0.7-1.2 0.9-0.4 50.8-25.2 2.8-7q0.6-1.6 1.6-2.8 1-1.3 2.4-2.3 1.3-0.9 2.9-1.4 1.6-0.5 3.2-0.5l33.5-0.1q1.3 0 2.6 0.3 1.3 0.3 2.4 0.9 1.2 0.6 2.2 1.4 1 0.9 1.7 1.9l9.1 12.6z"/><path class="b" d="m461.1 427.4l1-28.1 1.4-39.1 32.4 17.2q0.1 0 0.1 0 0 0 0 0 0 0 0 0 0 0 0 0.1 0 0 0 0 0 0 0 0 0 0 0.1 0 0 0 0 0c4.7 5.2 8 12.5 13.3 19.9q0.3 0.4 0.7 0.9 1 1.5 2 3.1 1 1.6 1.9 3.2 0.9 1.7 1.6 3.4 0.8 1.6 1.5 3.4c11.4 28.4 12.8 75.4 12.3 103 0 0.5 0.6 1 1.2 1.6q0.4 0.4 0.7 0.7c-0.8 8 0.1 0.5-1.2 7.8l-40-8.9-3.8 16.8-4.4-4.8-9-46.6-5.1-11.1-7.6-16.2z"/><path class="b" d="m343.2 458.3l-9.5 20.2-3.3 7.1-8.9 46.6-4.4 4.8-3.9-16.8-1.8-0.4-32.4-6.7-9.5 30.1c-1-1.8-1.8-3.7-2.2-5.7-0.4-2.1-0.5-4.1-0.2-6.2 0.3-2 1-4 1.9-5.8 1-1.8 2.3-3.5 3.8-4.8 0.6-0.6 1.2-1.2 1.1-1.7-0.5-32.5 1.5-91.7 19.4-116.1 5.7-7.7 9.1-15.4 14.1-20.8q0-0.1 0-0.1l12.1-19.8 0.7-1.2 0.9-0.4z"/><path class="f" d="m400.6 222.6c24.6 0 44.6 20 44.6 44.6 0 24.6-20 44.6-44.6 44.6-24.6 0-44.6-20-44.6-44.6 0-24.6 20-44.6 44.6-44.6z"/><path class="d" d="m340.4 236.1q0.2-0.3 0.5-0.5 0.4-0.2 0.7-0.4 0.3-0.1 0.7-0.2 0.4-0.1 0.8-0.1l-0.7-1.9c-0.2-0.6-0.3-1.2-0.2-1.8 0.1-0.6 0.4-1.2 0.8-1.7 0.4-0.5 0.9-0.8 1.5-1 0.6-0.2 1.2-0.3 1.9-0.2l2.4 0.5-0.2-1.6q-0.2-1 0.2-1.8 0.3-0.9 1-1.5 0.8-0.6 1.7-0.7 0.9-0.2 1.8 0.1 0.4 0.2 0.8 0.3 0.4 0 0.8 0 0.5 0 0.9-0.2 0.4-0.1 0.7-0.3 0.4-0.2 0.7-0.5 0.3-0.2 0.6-0.6 0.2-0.3 0.4-0.7 0.2-0.4 0.3-0.8l0.8-4.1 0.1-0.2c4.1-6.9 12.1-11.9 21.8-13.8 8.7-1.6 17.6-0.8 26.2 0 3.4 0.3 7.2 0.7 10.4 2.6 2.7 1.7 5 5.1 4.6 8.5 8.4-2.6 17.5 2.6 22 9.1 5.3 7.7 6.1 17.5 6.3 25.1 0.4 17.9-3.3 32.6-11 43.7-0.6 0.8-0.7 2.5-1.8 3l0.2-0.4c-1.2 0.7-2.5 1.7-2 2.7 1.3 3.1-7.6 9.9-14 12.2-11.5 4.1-26.8 3.7-37.6 2.3l-0.4-2.6c-3.9-0.5-6.6-1.5-7.4-3.1-1.3-1.2-2.5-2.2-3.5-3.2q-0.1 0-0.1-0.1c-4.9-4.6-6-7.3-6.5-11.3-0.5-4 0.4-8 1.3-11.7-18.8 2.9 7.3-19.9-10.1-24.3q-0.1-0.1-0.2-0.1 0 0-0.1 0-0.1 0-0.2-0.1-0.1 0-0.1 0-0.8-0.2-1.5-0.4-0.9-0.2-1.8-0.5-0.9-0.3-1.7-0.7-0.8-0.3-1.7-0.8-0.8-0.4-1.6-0.8c-4.8-3-6.5-7-9-11.4q-0.2-0.5-0.4-1-0.1-0.5 0-1.1 0.1-0.5 0.3-1 0.2-0.5 0.6-0.9z"/><path class="d" d="m243 461.2q0.1-0.1 0.1-0.2 0-0.1 0-0.2 0-0.1 0.1-0.2 0-0.1 0-0.2 0.1-0.1 0.1-0.2 0-0.1 0.1-0.2 0-0.1 0-0.2 0.1-0.1 0.2-0.3 0-0.1 0.1-0.3 0.1-0.1 0.1-0.2 0.1-0.2 0.2-0.3 0.1-0.2 0.2-0.5 0.2-0.2 0.4-0.5 0.1-0.2 0.3-0.4 0.3-0.4 0.6-0.8 0.1 0 0.1-0.1 0 0 0 0 0 0 0 0 0 0 0 0 0.3-0.3 0.6-0.6 0 0 0-0.1 0 0 0 0 0.1 0 0.1 0 0-0.1 0-0.1 0.1 0 0.1-0.1 0.1-0.1 0.1-0.1 0.1-0.1 0.1-0.1 0.1-0.1 0.1-0.1 0.7-0.7 1.5-1.3 0.2-0.2 0.4-0.4 0.3-0.2 0.6-0.5 0 0 0 0 0.9-0.6 1.8-1.3 0.3-0.2 0.6-0.4 1.2-0.9 2.7-1.7 0.7-0.5 1.5-0.9 0.2-0.1 0.4-0.3 0.2-0.1 0.3-0.2 1-0.5 2.1-1.1 1.1-0.5 2.2-1.1 0.8-0.4 1.7-0.8 0.4-0.2 0.7-0.4 0.2-0.1 0.4-0.2l0.8-0.3q0.5-0.3 1-0.5 1-0.5 2.1-0.9 0.5-0.3 1.1-0.5 0.6-0.3 1.3-0.6 0.7-0.3 1.3-0.5 0.7-0.3 1.4-0.6 0.7-0.3 1.4-0.6 0.4-0.1 0.8-0.3 0.6-0.2 1.2-0.4 1.9-0.8 3.9-1.5 1.4-0.6 2.9-1.1 2.2-0.8 4.5-1.6 2.3-0.8 4.7-1.5 3-1 6.2-2 1-0.3 2.1-0.7 4.3-1.3 8.8-2.6 3-0.9 6.1-1.7 4.7-1.3 9.5-2.6 2-0.5 4.1-1l0.3-0.1q2.9-0.8 5.8-1.5 1.1-0.3 2.3-0.5 4.2-1.1 8.6-2.1 2.1-0.5 4.3-1c8.8-2 17.9-3.9 26.9-5.7q2.1-0.4 4.2-0.8 1.7-0.4 3.5-0.7 1.7-0.3 3.5-0.6 1-0.2 2-0.4 2.3-0.4 4.5-0.8 8.9-1.6 17.7-3.1 8.8-1.4 17.4-2.6 5.7-0.8 11.2-1.5 0.7-0.1 1.5-0.2 1.9-0.2 3.8-0.5 1.2-0.1 2.5-0.2c1-0.2 2.1-0.3 3.1-0.4q1.2-0.1 2.4-0.3 0.5 0 0.9-0.1 1.5-0.1 3-0.3 0.4 0 0.8-0.1 1.6-0.1 3.1-0.3 0.2 0 0.3 0 1.8-0.2 3.5-0.3 1.7-0.2 3.3-0.3 1.7-0.2 3.3-0.3 0.8-0.1 1.5-0.1l0.9-0.1q1 0 2-0.1 1.2-0.1 2.3-0.2 1.5-0.1 3-0.2 1.5-0.1 3-0.1 2.2-0.1 4.3-0.2 0.2 0 0.3 0 2.5-0.1 4.8-0.2 5-0.1 9.5 0 1.6 0 3.1 0.1 0.6 0 1.1 0 0.6 0 1.1 0.1 0.6 0 1.2 0 0.6 0 1.1 0.1 5.6 0.3 10 1 0.6 0.1 1.1 0.2 0.4 0.1 0.7 0.1 0.3 0.1 0.5 0.1 2 0.4 3.7 0.9 0.4 0.1 0.7 0.2 0.2 0.1 0.4 0.2 0.6 0.2 1.2 0.4 0.4 0.1 0.8 0.3 0.4 0.2 0.8 0.4 0.4 0.2 0.8 0.4 0.4 0.2 0.8 0.4 0.2 0.1 0.4 0.3 0.2 0.1 0.3 0.2 0.2 0.1 0.3 0.2 0.1 0.1 0.3 0.2 0.1 0.2 0.2 0.3 0.1 0 0.1 0 0.1 0.1 0.1 0.1 0 0 0 0.1 0.1 0 0.1 0 0 0 0 0 0 0.1 0.1 0.1 0 0 0 0 0 0 0 0 0.1 0.1 0.1 0.1 0 0.1 0 0.1 0.1 0 0.1 0 0 0 0 0 0 0.1 0 0.1 0 0 0.1 0 0 0 0 0 0 0.1 0 0.1 0 0 0 0 0.1 0.1 0.2 0.2 0.2 0.2 0.3 0.4 0 0 0 0 0 0 0 0.1 0 0 0 0 0 0 0 0 0.1 0.1 0.1 0.1 0 0 0 0.1 0 0 0.1 0 0 0 0 0 0 0.1 0 0.1 0 0 0 0 0 0 0 0.1 0.1 0 0.1 0 0 0 0 0 0.1 0.3 0.2 0.6 0 0.9-0.1 1.8-0.2 2.8-0.3 5.9c-1.5 31.5-1.3 69.8-4.7 103.3q-0.1 0.8-0.1 1.4 0 0.2-0.1 0.4c1.2-6.6-0.3 3.7 0 0q0 0.1 0 0.1-0.1 0.7-0.3 1.5-0.1 0.7-0.4 1.4-0.2 0.7-0.4 1.4-0.3 0.7-0.6 1.4c-2.6 6.2-7 7.6-10 14.6q-5.5 3-11.1 5.7-0.2 0.2-0.4 0.3-1.5 0.7-3 1.4 0 0 0 0-0.1 0-0.1 0 0 0 0 0 0 0 0 0-7.2 3.4-14.5 6.4-9.7 3.9-19.6 7-2.1 0.7-4.3 1.3l-0.9 0.3q-8.2 2.4-16.5 4.3-8.4 1.9-16.8 3.3-8.5 1.3-17 2.2-8.5 0.8-17 1-1.8 0.1-3.5 0.1-0.6 0-1.2 0-1.9 0.1-3.8 0.1-3.9 0-7.7-0.2-7.1-0.2-14.2-0.7-7-0.6-14-1.6-7.1-0.9-14-2.2-7-1.4-13.9-3-3.7-0.9-7.3-2-3.5-0.9-7-2-4.5-1.3-8.9-2.8-4.4-1.5-8.7-3.2-4.4-1.7-8.7-3.5-4.2-1.8-8.5-3.7-0.5-0.3-1-0.5-3.3-1.5-6.6-3.2-5.8-2.9-11.5-6c-1.3-0.8-2.7-1.5-4-2.3q-0.3-0.8-0.6-1.6-0.3-0.7-0.5-1.5-0.2-0.8-0.4-1.6-0.2-0.8-0.4-1.6-0.1-0.9-0.3-1.6c-2.5-8.6-5 12.6-6.4-12-0.7-13.4-1.2-21.8-1.4-29q-0.1-0.6-0.1-1.1c-0.2-5.2-0.3-9.9-0.5-15.4q0-0.7 0-1.3c-0.1-3.1-0.1-5.5-0.1-7.3q0-0.1 0-0.2z"/><path class="h" d="m243 461.2q0.1-0.1 0.1-0.2 0-0.1 0-0.2 0-0.1 0.1-0.2 0-0.1 0-0.2 0.1-0.1 0.1-0.2 0-0.1 0.1-0.2 0-0.1 0-0.2 0.1-0.1 0.2-0.3 0-0.1 0.1-0.3 0.1-0.1 0.1-0.2 0.1-0.2 0.2-0.3 0.1-0.2 0.2-0.5 0.2-0.2 0.4-0.5 0.1-0.2 0.3-0.4 0.3-0.4 0.6-0.8 0.4-0.4 0.7-0.7 0 0 0-0.1 0 0 0 0 0.1 0 0.1 0 0-0.1 0-0.1 0.1 0 0.1-0.1 0.1-0.1 0.1-0.1 0.1-0.1 0.1-0.1 0.1-0.1 0.1-0.1 0.7-0.7 1.5-1.3 0.5-0.4 1-0.9 0 0 0 0 1.1-0.8 2.4-1.7 1.2-0.9 2.7-1.7 0.7-0.5 1.5-0.9 0.2-0.1 0.4-0.3 1.2-0.6 2.4-1.3 1.1-0.5 2.2-1.1 1.2-0.6 2.4-1.2 0.2-0.1 0.4-0.2l0.8-0.3q0.5-0.3 1-0.5 1-0.5 2.1-0.9 0.5-0.3 1.1-0.5 0.6-0.3 1.3-0.6 0.7-0.3 1.3-0.5 0.7-0.3 1.4-0.6 1.1-0.5 2.2-0.9 0.6-0.2 1.2-0.4 1.9-0.8 3.9-1.5 1.4-0.6 2.9-1.1 2.2-0.8 4.5-1.6 2.3-0.8 4.7-1.5 3-1 6.2-2 1-0.3 2.1-0.7 4.3-1.3 8.8-2.6 3-0.9 6.1-1.7 4.7-1.3 9.5-2.6 2-0.5 4.1-1 0.2-0.1 0.3-0.1 2.9-0.7 5.8-1.5 1.1-0.2 2.3-0.5 4.2-1.1 8.6-2.1 2.1-0.5 4.3-1c8.8-2 17.9-3.9 26.9-5.7q2.1-0.4 4.2-0.8 1.7-0.4 3.5-0.7 2.7-0.5 5.5-1 2.3-0.4 4.5-0.8 8.9-1.6 17.7-3.1 8.8-1.4 17.4-2.6 5.7-0.8 11.2-1.5 9.2-1.2 18-2.1 1.6-0.1 3.1-0.3 0.2 0 0.3 0 1.8-0.2 3.5-0.3 1.7-0.2 3.3-0.3 1.7-0.2 3.3-0.3 1.2-0.1 2.4-0.2 1 0 2-0.1 1.2-0.1 2.3-0.2 1.5-0.1 3-0.2 1.5-0.1 3-0.1 2.2-0.1 4.3-0.2 0.2 0 0.3 0 2.5-0.1 4.8-0.2 5-0.1 9.5 0 1.6 0 3.1 0.1 0.6 0 1.1 0 0.6 0 1.1 0.1 0.6 0 1.2 0 0.6 0 1.1 0.1 5.6 0.3 10 1 0.6 0.1 1.1 0.2 0.6 0.1 1.2 0.2 2 0.4 3.7 0.9 0.4 0.1 0.7 0.2 0.2 0.1 0.4 0.2 0.6 0.2 1.2 0.4 0.4 0.1 0.8 0.3 0.4 0.2 0.8 0.4 0.4 0.2 0.8 0.4 0.4 0.2 0.8 0.4 0.2 0.1 0.4 0.3 0.2 0.1 0.3 0.2 0.2 0.1 0.3 0.2 0.1 0.1 0.3 0.2 0.1 0.2 0.2 0.3 0.1 0 0.1 0 0.1 0.1 0.1 0.1 0 0 0 0.1 0.1 0 0.1 0 0 0 0 0 0 0.1 0.1 0.1 0 0 0 0 0 0 0 0 0.1 0.1 0.1 0.1 0 0.1 0 0.1 0.1 0 0.1 0 0 0 0 0 0 0.1 0 0.1 0.1 0 0.1 0 0 0.1 0.1 0.1 0 0.1 0 0.1 0.1 0 0.1 0.1 0.2 0.2 0.3 0.4 0 0 0 0.1 0 0 0.1 0 0 0 0 0.1 0 0 0 0 0 0 0 0.1 0 0 0.1 0 0 0 0 0 0 0.1 0 0.1 0 0 0 0 0 0 0 0.1 0.1 0 0.1 0 0 0 0 0 0 0.1 0 0.1 0.1 0.2 0.2 0.5 0 0.9-0.1 1.8-0.2 2.8-0.3 5.9c-2.7-2.9-9.3-3.4-18.9-2-9.2 1.3-21.2 4.4-35.1 8.9-6.6 2.1-13.6 4.5-20.9 7.1-38 13.8-84.8 34.5-127.8 55.7q-1.1 0.5-2.2 1.1c-18.8 9.3-36.7 18.7-52.8 27.7q-2.2 1.2-4.4 2.4c-8 4.6-15.6 9-22.4 13.2-2.5-8.6-5 12.6-6.4-12-0.7-13.4-1.2-21.8-1.4-29q-0.1-0.6-0.1-1.1c-0.2-5.9-0.3-11.2-0.4-15.4q-0.1-0.7-0.1-1.3c-0.1-3.1-0.1-5.5-0.1-7.3q0-0.1 0-0.2z"/></svg>